<svg version="1.2" xmlns="http://www.w3.org/2000/svg" viewBox="0 0 300 300" width="300" height="300">
	<title>logo-code-line</title>
	<style>
		.s0 { fill: #ffc122 } 
		.s1 { fill: #f46258 } 
	</style>
	<g id="LOGO V3">
		<g id="MAINLOGO">
			<path id="Forma 1 copy 5" class="s0" d="m81.2 124.9c2-1.9 5.1-1.9 7.1 0l112.2 112.2c1.9 2 1.9 5.1 0 7.1l-22.8 22.7c-1.9 2-5.1 2-7 0l-112.2-112.2c-2-1.9-2-5.1 0-7z" />
			<path id="Forma 1 copy 4" class="s1" d="m241.8 147.3c2 2 2 5.1 0 7.1l-112.9 112.9c-2 2-5.1 2-7.1 0l-22.9-22.9c-2-2-2-5.1 0-7.1l112.9-112.9c2-2 5.1-2 7.1 0z" />
			<path id="Forma 1 copy 3" class="s1" d="m218.9 176.5c-2 1.9-5.1 1.9-7.1 0l-112.9-113c-2-1.9-2-5.1 0-7l22.9-23c2-1.9 5.1-1.9 7.1 0l112.9 113c2 1.9 2 5.1 0 7z" />
			<path id="Forma 4" class="s0" d="m57.5 153.7c-1.9-1.9-1.9-5.1 0-7l112.2-112.2c2-2 5.1-2 7.1 0l22.7 22.7c2 2 2 5.1 0 7.1l-112.1 112.2c-2 1.9-5.2 1.9-7.1 0z" />
			<path id="PUNTO copy" class="s1" d="m150 165c-8.3 0-15-6.7-15-15c0-8.3 6.7-15 15-15c8.3 0 15 6.7 15 15c0 8.3-6.7 15-15 15z" />
		</g>
	</g>
</svg>